<svg width="40" height="40" viewBox="0 0 40 40" fill="none" xmlns="http://www.w3.org/2000/svg">
    <defs id="defs214"/>
    <style type="text/css" id="style161">
        <![CDATA[ .st0{fill-rule:evenodd;clip-rule:evenodd;fill:#78CDD4;}	.st1{fill-rule:evenodd;clip-rule:evenodd;fill:#B1E0E6;}	.st2{fill:#262626;}	.st3{fill-rule:evenodd;clip-rule:evenodd;fill:#FEFDEF;}]]>
    </style>
    <g id="g209" transform="matrix(0.31056906,0,0,0.31392453,5.3154111,0.78068594)">
        <path class="st2"
              d="m 64.49,40.46 v 15.68 c 0,0.79 -0.01,0.42 -0.02,1.34 v 0.01 c -0.01,0.76 -0.01,1.17 0.01,1.25 0.03,0.1 0.33,0.56 0.98,1.56 l 27.31,42 c 0.05,0.07 0.11,0.15 0.15,0.23 2.02,3.26 2.97,6.54 2.91,9.48 -0.04,1.86 -0.47,3.57 -1.28,5.08 -0.84,1.56 -2.06,2.88 -3.65,3.86 -1.97,1.23 -4.49,1.92 -7.51,1.9 -0.09,0.01 -0.18,0.01 -0.27,0.01 h -64.6 c -1.34,0 -1.54,0 -1.76,0.01 -4.52,0.08 -8.86,0.16 -13.04,-3.52 -2.36,-2.08 -3.73,-4.86 -3.71,-8.18 0.02,-2.72 1,-5.71 3.22,-8.82 L 30.35,59.92 c 0.04,-0.07 0.08,-0.14 0.12,-0.21 0.43,-0.67 0.58,-0.81 0.61,-0.9 0.02,-0.08 -0.02,-0.18 -0.03,-0.67 0,-0.27 -0.01,-0.58 -0.01,-0.98 l 0.01,-16.8 C 29.93,39.95 28.93,39.3 28.1,38.47 26.63,37 25.72,34.98 25.72,32.74 c 0,-2.23 0.91,-4.26 2.38,-5.73 1.47,-1.47 3.49,-2.38 5.73,-2.38 h 28.2 c 2.23,0 4.26,0.91 5.73,2.38 1.47,1.47 2.38,3.49 2.38,5.73 0,2.24 -0.94,4.26 -2.4,5.73 -0.9,0.9 -2.01,1.59 -3.25,1.99 z"
              id="path163"/>
        <path class="st3"
              d="M 60.8,40.81 H 34.71 L 34.7,57.16 c 0,2.85 0.22,2.39 -1.31,4.78 L 6.21,104.47 c -3.67,5.15 -3.07,9.45 -0.06,12.1 3.61,3.18 7.93,2.59 12.37,2.59 h 64.59 c 8.86,0.2 11.46,-7 6.68,-14.7 L 62.62,62.68 C 60.49,59.4 60.8,60.05 60.8,56.14 Z"
              id="path165"/>
        <path class="st1" d="m 14.97,90.68 -8.81,13.79 c -3.67,5.15 -3.07,9.45 -0.06,12.1 3.61,3.18 7.93,2.59 12.37,2.59 h 64.59 c 8.86,0.2 11.46,-7 6.68,-14.7 L 80.78,90.69 H 14.97 Z"
              id="path167"/>
        <path class="st2" d="m 27.01,72.28 c -0.98,0 -1.77,-0.79 -1.77,-1.77 0,-0.98 0.79,-1.77 1.77,-1.77 h 6.97 c 0.98,0 1.77,0.79 1.77,1.77 0,0.98 -0.79,1.77 -1.77,1.77 z"
              id="path169"/>
        <path class="st2" d="m 22.2,79.99 c -0.98,0 -1.77,-0.79 -1.77,-1.77 0,-0.98 0.79,-1.77 1.77,-1.77 h 8.92 c 0.98,0 1.77,0.79 1.77,1.77 0,0.98 -0.79,1.77 -1.77,1.77 z"
              id="path171"/>
        <path class="st2" d="m 17.24,87.86 c -0.98,0 -1.77,-0.79 -1.77,-1.77 0,-0.98 0.79,-1.77 1.77,-1.77 h 10.9 c 0.98,0 1.77,0.79 1.77,1.77 0,0.98 -0.79,1.77 -1.77,1.77 z"
              id="path173"/>
        <path class="st2"
              d="m 59.63,101.14 c 2.17,0 4.14,0.88 5.57,2.31 1.43,1.43 2.31,3.4 2.31,5.57 0,2.17 -0.88,4.14 -2.31,5.57 -1.43,1.42 -3.4,2.31 -5.57,2.31 -2.17,0 -4.14,-0.88 -5.57,-2.31 -1.43,-1.43 -2.31,-3.4 -2.31,-5.57 0,-2.17 0.88,-4.13 2.31,-5.56 l 0.01,-0.01 c 1.43,-1.43 3.4,-2.31 5.56,-2.31 z"
              id="path175"/>
        <path class="st0" d="m 59.63,103.5 c 3.05,0 5.52,2.47 5.52,5.52 0,3.05 -2.47,5.52 -5.52,5.52 -3.05,0 -5.52,-2.47 -5.52,-5.52 0.01,-3.05 2.48,-5.52 5.52,-5.52 z"
              id="path177"/>
        <path class="st2"
              d="m 78.37,101.06 c 1.23,0 2.35,0.5 3.16,1.31 0.06,0.06 0.12,0.13 0.17,0.19 0.71,0.79 1.14,1.83 1.14,2.97 0,1.22 -0.5,2.34 -1.31,3.15 l -0.01,0.01 c -0.81,0.81 -1.92,1.3 -3.15,1.3 -1.23,0 -2.34,-0.5 -3.16,-1.31 v 0 c -0.81,-0.81 -1.31,-1.93 -1.31,-3.16 0,-1.22 0.5,-2.34 1.31,-3.15 l 0.01,-0.01 c 0.81,-0.8 1.92,-1.3 3.15,-1.3 z"
              id="path179"/>
        <path class="st0" d="m 78.37,103.42 c 1.17,0 2.11,0.95 2.11,2.11 0,1.16 -0.94,2.11 -2.11,2.11 -1.17,0 -2.11,-0.95 -2.11,-2.11 0,-1.16 0.94,-2.11 2.11,-2.11 z"
              id="path181"/>
        <path class="st2"
              d="m 61.78,81.14 c 1.71,0 3.26,0.69 4.38,1.81 1.12,1.12 1.81,2.67 1.81,4.38 0,1.71 -0.69,3.26 -1.81,4.38 -1.12,1.12 -2.67,1.81 -4.38,1.81 -1.71,0 -3.26,-0.69 -4.38,-1.81 -1.12,-1.12 -1.81,-2.67 -1.81,-4.38 0,-1.71 0.69,-3.26 1.81,-4.38 1.12,-1.11 2.67,-1.81 4.38,-1.81 z"
              id="path183"/>
        <path class="st0" d="m 61.78,83.5 c 2.12,0 3.83,1.71 3.83,3.83 0,2.12 -1.72,3.83 -3.83,3.83 -2.12,0 -3.83,-1.72 -3.83,-3.83 0,-2.11 1.71,-3.83 3.83,-3.83 z"
              id="path185"/>
        <path class="st2"
              d="m 41.47,102.71 c 1.21,0 2.3,0.49 3.1,1.29 v 0 c 0.8,0.79 1.29,1.89 1.29,3.11 0,1.2 -0.49,2.3 -1.29,3.1 l -0.01,0.01 c -0.8,0.79 -1.89,1.28 -3.09,1.28 -1.21,0 -2.31,-0.49 -3.11,-1.29 -0.06,-0.06 -0.12,-0.13 -0.17,-0.19 -0.69,-0.78 -1.12,-1.8 -1.12,-2.92 0,-1.21 0.49,-2.31 1.29,-3.11 0.06,-0.06 0.13,-0.12 0.19,-0.17 0.79,-0.69 1.81,-1.11 2.92,-1.11 z"
              id="path187"/>
        <path class="st0" d="m 41.47,105.07 c 1.13,0 2.04,0.91 2.04,2.04 0,1.13 -0.91,2.04 -2.04,2.04 -1.13,0 -2.04,-0.91 -2.04,-2.04 0,-1.13 0.92,-2.04 2.04,-2.04 z"
              id="path189"/>
        <path class="st2"
              d="m 46.22,66.77 c 1.21,0 2.31,0.49 3.11,1.29 0.8,0.8 1.29,1.89 1.29,3.11 0,1.21 -0.49,2.3 -1.29,3.1 v 0 c -0.8,0.8 -1.9,1.29 -3.11,1.29 -1.2,0 -2.3,-0.49 -3.1,-1.29 l -0.01,-0.01 c -0.79,-0.8 -1.28,-1.89 -1.28,-3.09 0,-1.21 0.49,-2.31 1.29,-3.11 0.79,-0.8 1.89,-1.29 3.1,-1.29 z"
              id="path191"/>
        <path class="st0" d="m 46.22,69.13 c 1.13,0 2.04,0.91 2.04,2.04 0,1.13 -0.91,2.04 -2.04,2.04 -1.13,0 -2.04,-0.91 -2.04,-2.04 0.01,-1.13 0.92,-2.04 2.04,-2.04 z"
              id="path193"/>
        <path class="st2"
              d="m 45.84,81.38 c 1.36,0 2.6,0.55 3.5,1.45 v 0 0 c 0.9,0.9 1.45,2.14 1.45,3.5 0,1.36 -0.55,2.6 -1.45,3.49 l -0.01,0.01 c -0.9,0.9 -2.13,1.45 -3.5,1.45 -1.37,0 -2.61,-0.55 -3.5,-1.45 -0.06,-0.06 -0.11,-0.12 -0.16,-0.18 -0.8,-0.88 -1.29,-2.05 -1.29,-3.33 0,-1.37 0.56,-2.61 1.45,-3.5 0.9,-0.88 2.14,-1.44 3.51,-1.44 z"
              id="path195"/>
        <path class="st0" d="m 45.84,83.74 c 1.43,0 2.6,1.16 2.6,2.6 0,1.43 -1.16,2.6 -2.6,2.6 -1.43,0 -2.6,-1.16 -2.6,-2.6 0.01,-1.43 1.17,-2.6 2.6,-2.6 z"
              id="path197"/>
        <path class="st2"
              d="m 44.03,9.64 c 1.7,0 3.25,0.69 4.37,1.81 v 0 0 c 1.12,1.12 1.81,2.67 1.81,4.38 0,1.71 -0.69,3.26 -1.81,4.38 -1.12,1.12 -2.67,1.81 -4.38,1.81 -1.71,0 -3.26,-0.69 -4.38,-1.81 -1.12,-1.12 -1.81,-2.67 -1.81,-4.38 0,-1.71 0.69,-3.26 1.81,-4.38 1.14,-1.12 2.69,-1.81 4.39,-1.81 z"
              id="path199"/>
        <path class="st0" d="m 44.03,12 c 2.12,0 3.83,1.72 3.83,3.83 0,2.11 -1.72,3.83 -3.83,3.83 -2.12,0 -3.83,-1.72 -3.83,-3.83 0,-2.11 1.72,-3.83 3.83,-3.83 z"
              id="path201"/>
        <path class="st2"
              d="m 53.44,0 c 1.36,0 2.6,0.56 3.49,1.45 v 0 0 c 0.9,0.9 1.45,2.14 1.45,3.5 0,1.37 -0.55,2.61 -1.45,3.5 -0.06,0.06 -0.12,0.11 -0.18,0.16 -0.88,0.8 -2.05,1.29 -3.33,1.29 -1.37,0 -2.61,-0.56 -3.5,-1.45 -0.89,-0.89 -1.45,-2.14 -1.45,-3.5 0,-1.37 0.56,-2.61 1.45,-3.5 C 49.98,1.39 50.04,1.34 50.1,1.28 51,0.49 52.17,0 53.44,0 Z"
              id="path203"/>
        <path class="st0" d="m 53.44,2.36 c 1.43,0 2.59,1.16 2.59,2.6 0,1.43 -1.16,2.6 -2.59,2.6 -1.43,0 -2.6,-1.16 -2.6,-2.6 0,-1.44 1.16,-2.6 2.6,-2.6 z"
              id="path205"/>
        <path class="st3" d="m 33.82,28.33 h 28.2 c 2.43,0 4.41,1.98 4.41,4.41 v 0 c 0,2.43 -1.98,4.41 -4.41,4.41 h -28.2 c -2.43,0 -4.41,-1.98 -4.41,-4.41 v 0 c 0,-2.42 1.98,-4.41 4.41,-4.41 z"
              id="path207"/>
    </g>
</svg>
